<svg width="349" height="161" viewBox="0 0 349 161" fill="none" xmlns="http://www.w3.org/2000/svg">
<path d="M174 132.774C174 59.6434 174 167.017 174 1C101.098 1.00001 42 59.6692 42 132.799C174 132.799 101.098 132.774 174 132.774C174 0.359592 174 205.904 174 132.774Z" fill="#FF9975"/>
<path d="M67 133C29.9969 133 67 133 -2.88495e-06 133C-1.29164e-06 96.5492 29.9969 67 67 67C104.003 67 134 96.5492 134 133C67 133 104.003 133 67 133Z" fill="white"/>
<path d="M156 69.6287C156 45.4209 156 80.9556 156 26C131.699 26 112 45.4209 112 69.6287C156 69.6285 131.699 69.6287 156 69.6287C156 25.7965 156 93.8365 156 69.6287Z" fill="#007AFF"/>
<circle cx="67" cy="128" r="33" fill="#007AFF"/>
<circle cx="67" cy="128" r="18" fill="#FF9975"/>
<path d="M174.333 133C247.945 133 139.89 133 307 133C307 59.5461 247.945 3.93161e-06 174.333 7.13944e-07C174.334 133 174.333 59.5461 174.333 133C307.619 133 100.722 133 174.333 133Z" fill="#007AFF"/>
<path d="M282 133C244.997 133 282 133 215 133C215 96.5492 244.997 67 282 67C319.003 67 349 96.5492 349 133C282 133 319.003 133 282 133Z" fill="#FF9975"/>
<circle cx="282" cy="128" r="33" fill="white"/>
<ellipse cx="281.5" cy="128" rx="18.5" ry="18" fill="#FF9975"/>
<path d="M193.371 72C217.579 72 182.044 72 237 72C237 48.2518 217.579 29 193.371 29C193.371 72 193.371 48.2518 193.371 72C237.203 72 169.163 72 193.371 72Z" fill="#FF9975"/>
</svg>
