<svg width="145" height="36" viewBox="0 0 145 36" fill="none" xmlns="http://www.w3.org/2000/svg">
<path d="M8.69027 0.00012207C8.69027 12.193 8.69027 23.8885 8.69027 35.6985C5.83942 35.6985 2.98203 35.6985 0.0428175 35.6985C-0.00300544 34.9688 0.0755491 16.3391 0.000268534 7.73276C-0.0128237 6.25692 0.451951 5.45191 1.58443 4.7418C3.8854 3.30522 6.11436 1.73121 8.69027 0.00012207Z" fill="white"/>
<path d="M25.7045 35.7114C22.7293 35.7114 19.8359 35.7114 16.8673 35.7114C16.8673 34.9686 16.8705 25.7961 16.8673 21.938C16.864 17.0163 15.8068 15.5928 10.8906 14.1857C11.4143 13.7832 11.8071 13.4658 12.2031 13.1909C15.2209 11.1228 18.4841 11.0933 21.7703 12.8571C23.9665 14.3035 25.6031 16.2931 25.662 18.9536C25.7896 24.4577 25.7045 29.9684 25.7045 35.7114Z" fill="white"/>
<path d="M21.2651 8.88779C23.7199 8.88779 25.71 6.89818 25.71 4.44389C25.71 1.98959 23.7199 0 21.2651 0C18.8103 0 16.8203 1.98959 16.8203 4.44389C16.8203 6.89818 18.8103 8.88779 21.2651 8.88779Z" fill="#8CBCF9"/>
<path d="M49.1382 23.7707H37.4883V0.545471H48.3769C50.5172 0.545471 52.2161 1.05422 53.4738 2.0717C54.7535 3.08919 55.3933 4.51589 55.3933 6.35179C55.3933 7.47987 55.1175 8.44206 54.5659 9.23836C54.0143 10.0347 53.3193 10.6098 52.4809 10.9637C53.7385 11.2291 54.8417 11.9148 55.7905 13.0208C56.7172 14.1046 57.1805 15.4871 57.1805 17.1681C57.1805 19.1367 56.4524 20.7293 54.9962 21.9459C53.562 23.1625 51.6093 23.7707 49.1382 23.7707ZM42.2541 13.5848V19.6565H48.2446C49.436 19.6565 50.3627 19.4022 51.0246 18.8934C51.6866 18.3626 52.0175 17.6105 52.0175 16.6373C52.0175 15.664 51.6866 14.912 51.0246 14.3811C50.3627 13.8502 49.436 13.5848 48.2446 13.5848H42.2541ZM42.2541 4.52695V9.6365H47.6157C48.6086 9.6365 49.3809 9.41531 49.9325 8.97293C50.5061 8.53054 50.793 7.9112 50.793 7.1149C50.793 6.29649 50.5061 5.66609 49.9325 5.2237C49.3809 4.7592 48.6086 4.52695 47.6157 4.52695H42.2541Z" fill="white"/>
<path d="M65.581 23.7707H60.9145V7.21444H65.581V10.0015C66.0885 9.1167 66.8608 8.36465 67.8978 7.7453C68.9789 7.10384 70.1262 6.78311 71.3398 6.78311C71.6045 6.78311 71.7811 6.79417 71.8693 6.81629V11.395C71.428 11.2844 70.9426 11.2291 70.4131 11.2291C69.3319 11.2291 68.3391 11.5166 67.4344 12.0917C66.5519 12.6447 65.9341 13.3194 65.581 14.1157V23.7707Z" fill="white"/>
<path d="M78.4175 15.476C78.4175 16.8032 78.8477 17.9091 79.7082 18.7939C80.5687 19.6787 81.6609 20.1211 82.9847 20.1211C84.3086 20.1211 85.4008 19.6787 86.2613 18.7939C87.1218 17.887 87.552 16.781 87.552 15.476C87.552 14.1488 87.1218 13.0539 86.2613 12.1913C85.4008 11.3065 84.3086 10.8641 82.9847 10.8641C81.6609 10.8641 80.5687 11.3065 79.7082 12.1913C78.8477 13.0539 78.4175 14.1488 78.4175 15.476ZM73.8171 15.476C73.8171 13.0208 74.6776 10.9637 76.3986 9.30472C78.0975 7.62365 80.2929 6.78311 82.9847 6.78311C85.6766 6.78311 87.8719 7.62365 89.5709 9.30472C91.2919 10.9858 92.1524 13.0429 92.1524 15.476C92.1524 17.9534 91.2919 20.0326 89.5709 21.7136C87.8499 23.3726 85.6545 24.2021 82.9847 24.2021C80.315 24.2021 78.1196 23.3726 76.3986 21.7136C74.6776 20.0326 73.8171 17.9534 73.8171 15.476Z" fill="white"/>
<path d="M100.261 23.7707H95.5944V0.545471H100.261V13.253L105.954 7.21444H111.679L104.497 14.6797L112.804 23.7707H106.781L100.261 16.6373V23.7707Z" fill="white"/>
<path d="M122.286 24.2021C119.705 24.2021 117.532 23.4058 115.767 21.8132C114.001 20.2206 113.119 18.1082 113.119 15.476C113.119 13.0208 113.913 10.9637 115.502 9.30472C117.09 7.62365 119.164 6.78311 121.724 6.78311C124.107 6.78311 126.015 7.63471 127.45 9.33789C128.884 11.0411 129.601 13.1092 129.601 15.5424V16.77H117.752C117.995 17.8759 118.602 18.7275 119.573 19.3248C120.565 19.922 121.801 20.2206 123.279 20.2206C125.111 20.2206 126.876 19.734 128.575 18.7607V22.5099C127.096 23.638 125 24.2021 122.286 24.2021ZM117.752 13.7839H125C124.956 12.8327 124.614 12.0475 123.974 11.4282C123.357 10.7867 122.54 10.466 121.525 10.466C120.488 10.466 119.628 10.7756 118.944 11.395C118.26 11.9922 117.863 12.7885 117.752 13.7839Z" fill="white"/>
<path d="M137.85 23.7707H133.183V7.21444H137.85V10.0015C138.357 9.1167 139.129 8.36465 140.166 7.7453C141.248 7.10384 142.395 6.78311 143.608 6.78311C143.873 6.78311 144.05 6.79417 144.138 6.81629V11.395C143.697 11.2844 143.211 11.2291 142.682 11.2291C141.601 11.2291 140.608 11.5166 139.703 12.0917C138.821 12.6447 138.203 13.3194 137.85 14.1157V23.7707Z" fill="white"/>
<path d="M40.3106 34.3165C40.6576 34.6813 41.0915 34.8637 41.612 34.8637C42.127 34.8637 42.558 34.6813 42.9051 34.3165C43.2521 33.9518 43.4256 33.4916 43.4256 32.9361C43.4256 32.3806 43.2521 31.9204 42.9051 31.5557C42.558 31.1909 42.127 31.0085 41.612 31.0085C41.0915 31.0085 40.6576 31.1909 40.3106 31.5557C39.9691 31.9148 39.7984 32.3749 39.7984 32.9361C39.7984 33.4973 39.9691 33.9574 40.3106 34.3165ZM38.5642 32.9361C38.5642 32.0719 38.8524 31.348 39.429 30.7644C40.0055 30.1696 40.7332 29.8722 41.612 29.8722C42.4852 29.8722 43.2101 30.1696 43.7867 30.7644C44.3688 31.3593 44.6599 32.0831 44.6599 32.9361C44.6599 33.7834 44.3688 34.5073 43.7867 35.1078C43.2101 35.7026 42.4852 36 41.612 36C40.7332 36 40.0055 35.7026 39.429 35.1078C38.8524 34.513 38.5642 33.7891 38.5642 32.9361Z" fill="white"/>
<path d="M46.9608 35.8822H45.7517V29.99H46.9608V32.1954H49.614V29.99H50.8147V35.8822H49.614V33.298H46.9608V35.8822Z" fill="white"/>
<path d="M51.5268 35.8317V34.7374C51.65 34.7823 51.7927 34.8048 51.955 34.8048C52.2685 34.8048 52.4812 34.5887 52.5931 34.1566C52.7051 33.7133 52.7695 32.8996 52.7863 31.7156L52.8115 29.99H56.9593V35.8822H55.7586V31.0759H53.9785L53.945 32.2711C53.9002 33.6572 53.7434 34.6083 53.4748 35.1246C53.2005 35.6465 52.7163 35.9074 52.0222 35.9074C51.8095 35.9074 51.6444 35.8822 51.5268 35.8317Z" fill="white"/>
<path d="M59.0199 35.8822H57.7521L60.271 29.9564H61.4297L63.9486 35.8822H62.6639L62.0846 34.5186H59.5992L59.0199 35.8822ZM60.8419 31.4715L59.9771 33.5169H61.6983L60.8419 31.4715Z" fill="white"/>
<path d="M65.7414 35.8822H64.7255V29.99H65.9346V33.8283L68.7809 29.99H69.8221V35.8822H68.6214V32.0186L65.7414 35.8822ZM65.733 28.2308H66.6231C66.6231 28.416 66.679 28.5647 66.791 28.6769C66.9085 28.7892 67.0653 28.8453 67.2612 28.8453C67.4571 28.8453 67.6138 28.7892 67.7314 28.6769C67.8489 28.5647 67.9105 28.416 67.9161 28.2308H68.8061C68.8005 28.6685 68.655 29.0192 68.3695 29.283C68.084 29.5411 67.7174 29.6702 67.2696 29.6702C66.8218 29.6702 66.4551 29.5411 66.1697 29.283C65.8842 29.0192 65.7386 28.6685 65.733 28.2308Z" fill="white"/>
<path d="M72.3302 35.8822H71.1211V29.99H72.3302V32.1954H74.9835V29.99H76.1841V35.8822H74.9835V33.298H72.3302V35.8822Z" fill="white"/>
<path d="M82.613 36C81.7006 36 80.9421 35.7138 80.3376 35.1414C79.733 34.5578 79.4308 33.8227 79.4308 32.9361C79.4308 32.0383 79.7303 31.3031 80.3292 30.7308C80.9337 30.1584 81.695 29.8722 82.613 29.8722C83.184 29.8722 83.7017 29.9956 84.1663 30.2426V31.4631C83.7129 31.16 83.1979 31.0085 82.6214 31.0085C82.0672 31.0085 81.5998 31.1909 81.2192 31.5557C80.8498 31.9148 80.665 32.3749 80.665 32.9361C80.665 33.4973 80.8554 33.9602 81.236 34.325C81.611 34.6841 82.0896 34.8637 82.6718 34.8637C83.3155 34.8637 83.8529 34.6925 84.2839 34.3502V35.5707C83.8081 35.8569 83.2511 36 82.613 36Z" fill="white"/>
<path d="M84.92 31.0759V29.99H89.8486V31.0759H87.9846V35.8822H86.7756V31.0759H84.92Z" fill="white"/>
<path d="M91.96 35.8822H90.7509V29.99H93.3202C93.9527 29.99 94.4509 30.1556 94.8147 30.4867C95.1842 30.8121 95.3689 31.2386 95.3689 31.7661C95.3689 32.2992 95.1842 32.7285 94.8147 33.0539C94.4509 33.385 93.9527 33.5506 93.3202 33.5506H91.96V35.8822ZM91.96 31.0506V32.5152H93.2362C93.5273 32.5152 93.754 32.4535 93.9163 32.3301C94.0787 32.201 94.1598 32.0186 94.1598 31.7829C94.1598 31.5472 94.0787 31.3677 93.9163 31.2442C93.754 31.1152 93.5273 31.0506 93.2362 31.0506H91.96Z" fill="white"/>
<path d="M96.3853 35.8822H95.1175L97.6364 29.9564H98.7951L101.314 35.8822H100.029L99.45 34.5186H96.9647L96.3853 35.8822ZM98.2073 31.4715L97.3425 33.5169H99.0638L98.2073 31.4715Z" fill="white"/>
<path d="M101.847 29.99H103.258L104.492 31.7493L105.743 29.99H107.137L105.198 32.7004L107.481 35.8822H106.071L104.475 33.6852L102.889 35.8822H101.495L103.787 32.7088L101.847 29.99Z" fill="white"/>
<path d="M109.318 34.3165C109.665 34.6813 110.099 34.8637 110.62 34.8637C111.135 34.8637 111.566 34.6813 111.913 34.3165C112.26 33.9518 112.433 33.4916 112.433 32.9361C112.433 32.3806 112.26 31.9204 111.913 31.5557C111.566 31.1909 111.135 31.0085 110.62 31.0085C110.099 31.0085 109.665 31.1909 109.318 31.5557C108.977 31.9148 108.806 32.3749 108.806 32.9361C108.806 33.4973 108.977 33.9574 109.318 34.3165ZM107.572 32.9361C107.572 32.0719 107.86 31.348 108.437 30.7644C109.013 30.1696 109.741 29.8722 110.62 29.8722C111.493 29.8722 112.218 30.1696 112.794 30.7644C113.376 31.3593 113.667 32.0831 113.667 32.9361C113.667 33.7834 113.376 34.5073 112.794 35.1078C112.218 35.7026 111.493 36 110.62 36C109.741 36 109.013 35.7026 108.437 35.1078C107.86 34.513 107.572 33.7891 107.572 32.9361Z" fill="white"/>
<path d="M117.715 35.8822H114.759V29.99H117.522C118.065 29.99 118.496 30.1191 118.815 30.3772C119.139 30.6354 119.302 30.9973 119.302 31.4631C119.302 31.7493 119.232 31.9934 119.092 32.1954C118.952 32.3974 118.775 32.5433 118.563 32.6331C118.882 32.7004 119.162 32.8744 119.402 33.155C119.638 33.4299 119.755 33.7806 119.755 34.2071C119.755 34.7066 119.57 35.1106 119.201 35.4192C118.837 35.7279 118.342 35.8822 117.715 35.8822ZM115.968 33.298V34.8384H117.488C117.79 34.8384 118.025 34.7739 118.193 34.6448C118.361 34.5101 118.445 34.3194 118.445 34.0724C118.445 33.8255 118.361 33.6347 118.193 33.5001C118.025 33.3654 117.79 33.298 117.488 33.298H115.968ZM115.968 31.0001V32.2964H117.329C117.58 32.2964 117.776 32.2403 117.916 32.128C118.062 32.0158 118.135 31.8587 118.135 31.6567C118.135 31.449 118.062 31.2891 117.916 31.1769C117.776 31.059 117.58 31.0001 117.329 31.0001H115.968Z" fill="white"/>
<path d="M121.525 35.8822H120.257L122.776 29.9564H123.935L126.454 35.8822H125.169L124.59 34.5186H122.105L121.525 35.8822ZM123.347 31.4715L122.482 33.5169H124.204L123.347 31.4715Z" fill="white"/>
<path d="M128.44 35.8822H127.231V29.99H128.44V32.1954H131.093V29.99H132.294V35.8822H131.093V33.298H128.44V35.8822Z" fill="white"/>
<path d="M134.61 35.8822H133.594V29.99H134.803V33.8283L137.649 29.99H138.69V35.8822H137.49V32.0186L134.61 35.8822Z" fill="white"/>
<path d="M144.397 35.8822H139.989V29.99H144.305V31.0759H141.198V32.2122H143.7V33.2812H141.198V34.7963H144.397V35.8822Z" fill="white"/>
</svg>
