<svg width="253" height="63" viewBox="0 0 253 63" fill="none" xmlns="http://www.w3.org/2000/svg">
<path d="M15.208 0C15.208 21.3376 15.208 41.8047 15.208 62.4723C10.219 62.4723 5.21856 62.4723 0.0749308 62.4723C-0.00525952 61.1952 0.132211 28.5933 0.000469935 13.5321C-0.0224416 10.9494 0.790915 9.54063 2.77276 8.29794C6.79946 5.78393 10.7001 3.02941 15.208 0Z" fill="#007AFF"/>
<path d="M44.9869 62.4951C39.7802 62.4951 34.7168 62.4951 29.5216 62.4951C29.5216 61.1952 29.5273 45.1433 29.5216 38.3916C29.5159 29.7786 27.6658 27.2876 19.0625 24.8251C19.979 24.1207 20.6663 23.5652 21.3594 23.0842C26.6405 19.4649 32.3512 19.4134 38.102 22.5C41.9454 25.0312 44.8093 28.5131 44.9124 33.1688C45.1358 42.8011 44.9869 52.4448 44.9869 62.4951Z" fill="#007AFF"/>
<path d="M37.216 15.5536C41.5119 15.5536 44.9944 12.0718 44.9944 7.77681C44.9944 3.48179 41.5119 0 37.216 0C32.92 0 29.4375 3.48179 29.4375 7.77681C29.4375 12.0718 32.92 15.5536 37.216 15.5536Z" fill="#8CBCF9"/>
<path d="M85.9928 41.5988H65.6055V0.95459H84.6606C88.406 0.95459 91.3792 1.84489 93.5801 3.6255C95.8196 5.4061 96.9393 7.90282 96.9393 11.1157C96.9393 13.0898 96.4567 14.7736 95.4914 16.1671C94.5261 17.5607 93.3098 18.5671 91.8425 19.1864C94.0434 19.6509 95.974 20.8509 97.6344 22.7864C99.2561 24.6831 100.067 27.1024 100.067 30.0443C100.067 33.4893 98.7927 36.2764 96.2443 38.4054C93.7345 40.5343 90.3173 41.5988 85.9928 41.5988ZM73.9457 23.7734V34.399H84.429C86.514 34.399 88.1357 33.9538 89.2941 33.0635C90.4525 32.1345 91.0317 30.8184 91.0317 29.1152C91.0317 27.4121 90.4525 26.096 89.2941 25.1669C88.1357 24.2379 86.514 23.7734 84.429 23.7734H73.9457ZM73.9457 7.92217V16.8639H83.3285C85.0661 16.8639 86.4175 16.4768 87.3828 15.7026C88.3867 14.9285 88.8887 13.8446 88.8887 12.4511C88.8887 11.0189 88.3867 9.91568 87.3828 9.1415C86.4175 8.32862 85.0661 7.92217 83.3285 7.92217H73.9457Z" fill="url(#paint0_radial)"/>
<path d="M114.768 41.5988H106.601V12.6253H114.768V17.5026C115.656 15.9543 117.007 14.6382 118.822 13.5543C120.714 12.4318 122.722 11.8705 124.846 11.8705C125.309 11.8705 125.618 11.8898 125.772 11.9285V19.9413C125 19.7477 124.151 19.6509 123.224 19.6509C121.332 19.6509 119.594 20.1542 118.011 21.1606C116.467 22.1283 115.386 23.3089 114.768 24.7024V41.5988Z" fill="url(#paint1_radial)"/>
<path d="M137.232 27.083C137.232 29.4056 137.985 31.341 139.49 32.8894C140.996 34.4377 142.908 35.2119 145.224 35.2119C147.541 35.2119 149.452 34.4377 150.958 32.8894C152.464 31.3023 153.217 29.3668 153.217 27.083C153.217 24.7605 152.464 22.8444 150.958 21.3348C149.452 19.7864 147.541 19.0122 145.224 19.0122C142.908 19.0122 140.996 19.7864 139.49 21.3348C137.985 22.8444 137.232 24.7605 137.232 27.083ZM129.181 27.083C129.181 22.7864 130.687 19.1864 133.699 16.2833C136.672 13.3414 140.514 11.8705 145.224 11.8705C149.935 11.8705 153.777 13.3414 156.75 16.2833C159.762 19.2251 161.268 22.8251 161.268 27.083C161.268 31.4184 159.762 35.057 156.75 37.9989C153.738 40.9021 149.896 42.3536 145.224 42.3536C140.552 42.3536 136.71 40.9021 133.699 37.9989C130.687 35.057 129.181 31.4184 129.181 27.083Z" fill="url(#paint2_radial)"/>
<path d="M175.458 41.5988H167.291V0.95459H175.458V23.1928L185.42 12.6253H195.44L182.871 25.6895L197.409 41.5988H186.868L175.458 29.1152V41.5988Z" fill="url(#paint3_radial)"/>
<path d="M214.002 42.3536C209.485 42.3536 205.682 40.9601 202.593 38.1731C199.504 35.3861 197.959 31.6894 197.959 27.083C197.959 22.7864 199.349 19.1864 202.129 16.2833C204.909 13.3414 208.539 11.8705 213.018 11.8705C217.188 11.8705 220.528 13.3608 223.038 16.3413C225.548 19.3219 226.802 22.9412 226.802 27.1992V29.3475H206.068C206.492 31.2829 207.554 32.7732 209.253 33.8184C210.991 34.8635 213.153 35.3861 215.74 35.3861C218.945 35.3861 222.034 34.5345 225.007 32.8313V39.3924C222.42 41.3666 218.752 42.3536 214.002 42.3536ZM206.068 24.1218H218.752C218.675 22.4573 218.076 21.0832 216.956 19.9993C215.875 18.8768 214.447 18.3155 212.67 18.3155C210.856 18.3155 209.35 18.8574 208.153 19.9413C206.956 20.9864 206.261 22.3799 206.068 24.1218Z" fill="url(#paint4_radial)"/>
<path d="M241.238 41.5988H233.072V12.6253H241.238V17.5026C242.126 15.9543 243.478 14.6382 245.292 13.5543C247.184 12.4318 249.192 11.8705 251.316 11.8705C251.779 11.8705 252.088 11.8898 252.243 11.9285V19.9413C251.47 19.7477 250.621 19.6509 249.694 19.6509C247.802 19.6509 246.065 20.1542 244.482 21.1606C242.937 22.1283 241.856 23.3089 241.238 24.7024V41.5988Z" fill="url(#paint5_radial)"/>
<path d="M70.5445 60.054C71.1519 60.6923 71.911 61.0115 72.822 61.0115C73.7232 61.0115 74.4775 60.6923 75.0849 60.054C75.6922 59.4157 75.9959 58.6104 75.9959 57.6382C75.9959 56.666 75.6922 55.8608 75.0849 55.2225C74.4775 54.5841 73.7232 54.265 72.822 54.265C71.911 54.265 71.1519 54.5841 70.5445 55.2225C69.947 55.8509 69.6482 56.6562 69.6482 57.6382C69.6482 58.6203 69.947 59.4255 70.5445 60.054ZM67.4882 57.6382C67.4882 56.1259 67.9927 54.8591 69.0017 53.8378C70.0106 52.7969 71.2841 52.2764 72.822 52.2764C74.3502 52.2764 75.6187 52.7969 76.6277 53.8378C77.6464 54.8787 78.1558 56.1456 78.1558 57.6382C78.1558 59.1211 77.6464 60.3879 76.6277 61.4387C75.6187 62.4796 74.3502 63.0001 72.822 63.0001C71.2841 63.0001 70.0106 62.4796 69.0017 61.4387C67.9927 60.3977 67.4882 59.1309 67.4882 57.6382Z" fill="url(#paint6_radial)"/>
<path d="M82.1823 62.7939H80.0664V52.4826H82.1823V56.342H86.8255V52.4826H88.9267V62.7939H86.8255V58.2716H82.1823V62.7939Z" fill="url(#paint7_radial)"/>
<path d="M90.1729 62.7055V60.7905C90.3884 60.8691 90.6382 60.9084 90.9223 60.9084C91.4708 60.9084 91.8431 60.5303 92.039 59.7741C92.2349 58.9983 92.3476 57.5744 92.377 55.5023L92.421 52.4826H99.6797V62.7939H97.5785V54.3828H94.4635L94.4047 56.4745C94.3263 58.9001 94.052 60.5647 93.5818 61.4681C93.1018 62.3814 92.2545 62.838 91.0398 62.838C90.6676 62.838 90.3786 62.7939 90.1729 62.7055Z" fill="url(#paint8_radial)"/>
<path d="M103.286 62.7939H101.067L105.475 52.4237H107.503L111.911 62.7939H109.663L108.649 60.4075H104.3L103.286 62.7939ZM106.474 55.0751L104.961 58.6546H107.973L106.474 55.0751Z" fill="url(#paint9_radial)"/>
<path d="M115.049 62.7939H113.271V52.4826H115.386V59.1996L120.368 52.4826H122.19V62.7939H120.088V56.0326L115.049 62.7939ZM115.034 49.404H116.591C116.591 49.728 116.689 49.9883 116.885 50.1847C117.091 50.3811 117.365 50.4793 117.708 50.4793C118.051 50.4793 118.325 50.3811 118.531 50.1847C118.737 49.9883 118.844 49.728 118.854 49.404H120.412C120.402 50.1699 120.147 50.7837 119.648 51.2453C119.148 51.697 118.506 51.9229 117.723 51.9229C116.939 51.9229 116.297 51.697 115.798 51.2453C115.298 50.7837 115.044 50.1699 115.034 49.404Z" fill="url(#paint10_radial)"/>
<path d="M126.579 62.7939H124.463V52.4826H126.579V56.342H131.222V52.4826H133.323V62.7939H131.222V58.2716H126.579V62.7939Z" fill="url(#paint11_radial)"/>
<path d="M144.574 63.0001C142.977 63.0001 141.65 62.4992 140.592 61.4976C139.534 60.4763 139.005 59.1898 139.005 57.6382C139.005 56.067 139.529 54.7805 140.577 53.7789C141.635 52.7772 142.967 52.2764 144.574 52.2764C145.573 52.2764 146.479 52.4924 147.292 52.9245V55.0604C146.499 54.5301 145.597 54.265 144.588 54.265C143.619 54.265 142.801 54.5841 142.135 55.2225C141.488 55.8509 141.165 56.6562 141.165 57.6382C141.165 58.6203 141.498 59.4304 142.164 60.0687C142.82 60.6972 143.658 61.0115 144.677 61.0115C145.803 61.0115 146.744 60.712 147.498 60.1129V62.2488C146.665 62.7497 145.69 63.0001 144.574 63.0001Z" fill="url(#paint12_radial)"/>
<path d="M148.611 54.3828V52.4826H157.236V54.3828H153.974V62.7939H151.858V54.3828H148.611Z" fill="url(#paint13_radial)"/>
<path d="M160.931 62.7939H158.815V52.4826H163.311C164.418 52.4826 165.29 52.7723 165.927 53.3517C166.573 53.9213 166.897 54.6676 166.897 55.5907C166.897 56.5236 166.573 57.2749 165.927 57.8445C165.29 58.4238 164.418 58.7135 163.311 58.7135H160.931V62.7939ZM160.931 54.3386V56.9017H163.164C163.674 56.9017 164.071 56.7937 164.355 56.5776C164.639 56.3518 164.781 56.0326 164.781 55.6202C164.781 55.2077 164.639 54.8935 164.355 54.6774C164.071 54.4516 163.674 54.3386 163.164 54.3386H160.931Z" fill="url(#paint14_radial)"/>
<path d="M168.675 62.7939H166.457L170.865 52.4237H172.892L177.301 62.7939H175.052L174.039 60.4075H169.689L168.675 62.7939ZM171.864 55.0751L170.35 58.6546H173.363L171.864 55.0751Z" fill="url(#paint15_radial)"/>
<path d="M178.234 52.4826H180.703L182.863 55.5613L185.052 52.4826H187.491L184.097 57.2258L188.093 62.7939H185.625L182.833 58.9492L180.056 62.7939H177.617L181.628 57.2405L178.234 52.4826Z" fill="url(#paint16_radial)"/>
<path d="M191.308 60.054C191.915 60.6923 192.674 61.0115 193.585 61.0115C194.487 61.0115 195.241 60.6923 195.848 60.054C196.455 59.4157 196.759 58.6104 196.759 57.6382C196.759 56.666 196.455 55.8608 195.848 55.2225C195.241 54.5841 194.487 54.265 193.585 54.265C192.674 54.265 191.915 54.5841 191.308 55.2225C190.71 55.8509 190.411 56.6562 190.411 57.6382C190.411 58.6203 190.71 59.4255 191.308 60.054ZM188.252 57.6382C188.252 56.1259 188.756 54.8591 189.765 53.8378C190.774 52.7969 192.047 52.2764 193.585 52.2764C195.113 52.2764 196.382 52.7969 197.391 53.8378C198.41 54.8787 198.919 56.1456 198.919 57.6382C198.919 59.1211 198.41 60.3879 197.391 61.4387C196.382 62.4796 195.113 63.0001 193.585 63.0001C192.047 63.0001 190.774 62.4796 189.765 61.4387C188.756 60.3977 188.252 59.1309 188.252 57.6382Z" fill="url(#paint17_radial)"/>
<path d="M206.002 62.7939H200.83V52.4826H205.664C206.614 52.4826 207.368 52.7085 207.927 53.1602C208.495 53.6119 208.779 54.2453 208.779 55.0604C208.779 55.5613 208.657 55.9884 208.412 56.342C208.167 56.6955 207.858 56.9508 207.486 57.1079C208.044 57.2258 208.534 57.5302 208.955 58.0212C209.367 58.5024 209.572 59.1162 209.572 59.8625C209.572 60.7365 209.249 61.4436 208.603 61.9837C207.966 62.5238 207.099 62.7939 206.002 62.7939ZM202.946 58.2716V60.9673H205.605C206.134 60.9673 206.546 60.8544 206.839 60.6285C207.133 60.3928 207.28 60.0589 207.28 59.6268C207.28 59.1947 207.133 58.8609 206.839 58.6252C206.546 58.3895 206.134 58.2716 205.605 58.2716H202.946ZM202.946 54.2502V56.5187H205.326C205.767 56.5187 206.11 56.4205 206.355 56.2241C206.609 56.0277 206.737 55.7527 206.737 55.3992C206.737 55.0359 206.609 54.756 206.355 54.5596C206.11 54.3534 205.767 54.2502 205.326 54.2502H202.946Z" fill="url(#paint18_radial)"/>
<path d="M212.67 62.7939H210.451L214.859 52.4237H216.887L221.295 62.7939H219.047L218.033 60.4075H213.684L212.67 62.7939ZM215.859 55.0751L214.345 58.6546H217.357L215.859 55.0751Z" fill="url(#paint19_radial)"/>
<path d="M224.771 62.7939H222.655V52.4826H224.771V56.342H229.414V52.4826H231.515V62.7939H229.414V58.2716H224.771V62.7939Z" fill="url(#paint20_radial)"/>
<path d="M235.568 62.7939H233.79V52.4826H235.906V59.1996L240.887 52.4826H242.709V62.7939H240.608V56.0326L235.568 62.7939Z" fill="url(#paint21_radial)"/>
<path d="M252.697 62.7939H244.982V52.4826H252.535V54.3828H247.098V56.3714H251.477V58.2422H247.098V60.8936H252.697V62.7939Z" fill="url(#paint22_radial)"/>
<defs>
<radialGradient id="paint0_radial" cx="0" cy="0" r="1" gradientUnits="userSpaceOnUse" gradientTransform="translate(247.531 15.9417) rotate(166.153) scale(173.627 526.022)">
<stop stop-color="#0F2340"/>
<stop offset="0.734375" stop-color="#007AFF"/>
</radialGradient>
<radialGradient id="paint1_radial" cx="0" cy="0" r="1" gradientUnits="userSpaceOnUse" gradientTransform="translate(247.531 15.9417) rotate(166.153) scale(173.627 526.022)">
<stop stop-color="#0F2340"/>
<stop offset="0.734375" stop-color="#007AFF"/>
</radialGradient>
<radialGradient id="paint2_radial" cx="0" cy="0" r="1" gradientUnits="userSpaceOnUse" gradientTransform="translate(247.531 15.9417) rotate(166.153) scale(173.627 526.022)">
<stop stop-color="#0F2340"/>
<stop offset="0.734375" stop-color="#007AFF"/>
</radialGradient>
<radialGradient id="paint3_radial" cx="0" cy="0" r="1" gradientUnits="userSpaceOnUse" gradientTransform="translate(247.531 15.9417) rotate(166.153) scale(173.627 526.022)">
<stop stop-color="#0F2340"/>
<stop offset="0.734375" stop-color="#007AFF"/>
</radialGradient>
<radialGradient id="paint4_radial" cx="0" cy="0" r="1" gradientUnits="userSpaceOnUse" gradientTransform="translate(247.531 15.9417) rotate(166.153) scale(173.627 526.022)">
<stop stop-color="#0F2340"/>
<stop offset="0.734375" stop-color="#007AFF"/>
</radialGradient>
<radialGradient id="paint5_radial" cx="0" cy="0" r="1" gradientUnits="userSpaceOnUse" gradientTransform="translate(247.531 15.9417) rotate(166.153) scale(173.627 526.022)">
<stop stop-color="#0F2340"/>
<stop offset="0.734375" stop-color="#007AFF"/>
</radialGradient>
<radialGradient id="paint6_radial" cx="0" cy="0" r="1" gradientUnits="userSpaceOnUse" gradientTransform="translate(247.531 15.9417) rotate(166.153) scale(173.627 526.022)">
<stop stop-color="#0F2340"/>
<stop offset="0.734375" stop-color="#007AFF"/>
</radialGradient>
<radialGradient id="paint7_radial" cx="0" cy="0" r="1" gradientUnits="userSpaceOnUse" gradientTransform="translate(247.531 15.9417) rotate(166.153) scale(173.627 526.022)">
<stop stop-color="#0F2340"/>
<stop offset="0.734375" stop-color="#007AFF"/>
</radialGradient>
<radialGradient id="paint8_radial" cx="0" cy="0" r="1" gradientUnits="userSpaceOnUse" gradientTransform="translate(247.531 15.9417) rotate(166.153) scale(173.627 526.022)">
<stop stop-color="#0F2340"/>
<stop offset="0.734375" stop-color="#007AFF"/>
</radialGradient>
<radialGradient id="paint9_radial" cx="0" cy="0" r="1" gradientUnits="userSpaceOnUse" gradientTransform="translate(247.531 15.9417) rotate(166.153) scale(173.627 526.022)">
<stop stop-color="#0F2340"/>
<stop offset="0.734375" stop-color="#007AFF"/>
</radialGradient>
<radialGradient id="paint10_radial" cx="0" cy="0" r="1" gradientUnits="userSpaceOnUse" gradientTransform="translate(247.531 15.9417) rotate(166.153) scale(173.627 526.022)">
<stop stop-color="#0F2340"/>
<stop offset="0.734375" stop-color="#007AFF"/>
</radialGradient>
<radialGradient id="paint11_radial" cx="0" cy="0" r="1" gradientUnits="userSpaceOnUse" gradientTransform="translate(247.531 15.9417) rotate(166.153) scale(173.627 526.022)">
<stop stop-color="#0F2340"/>
<stop offset="0.734375" stop-color="#007AFF"/>
</radialGradient>
<radialGradient id="paint12_radial" cx="0" cy="0" r="1" gradientUnits="userSpaceOnUse" gradientTransform="translate(247.531 15.9417) rotate(166.153) scale(173.627 526.022)">
<stop stop-color="#0F2340"/>
<stop offset="0.734375" stop-color="#007AFF"/>
</radialGradient>
<radialGradient id="paint13_radial" cx="0" cy="0" r="1" gradientUnits="userSpaceOnUse" gradientTransform="translate(247.531 15.9417) rotate(166.153) scale(173.627 526.022)">
<stop stop-color="#0F2340"/>
<stop offset="0.734375" stop-color="#007AFF"/>
</radialGradient>
<radialGradient id="paint14_radial" cx="0" cy="0" r="1" gradientUnits="userSpaceOnUse" gradientTransform="translate(247.531 15.9417) rotate(166.153) scale(173.627 526.022)">
<stop stop-color="#0F2340"/>
<stop offset="0.734375" stop-color="#007AFF"/>
</radialGradient>
<radialGradient id="paint15_radial" cx="0" cy="0" r="1" gradientUnits="userSpaceOnUse" gradientTransform="translate(247.531 15.9417) rotate(166.153) scale(173.627 526.022)">
<stop stop-color="#0F2340"/>
<stop offset="0.734375" stop-color="#007AFF"/>
</radialGradient>
<radialGradient id="paint16_radial" cx="0" cy="0" r="1" gradientUnits="userSpaceOnUse" gradientTransform="translate(247.531 15.9417) rotate(166.153) scale(173.627 526.022)">
<stop stop-color="#0F2340"/>
<stop offset="0.734375" stop-color="#007AFF"/>
</radialGradient>
<radialGradient id="paint17_radial" cx="0" cy="0" r="1" gradientUnits="userSpaceOnUse" gradientTransform="translate(247.531 15.9417) rotate(166.153) scale(173.627 526.022)">
<stop stop-color="#0F2340"/>
<stop offset="0.734375" stop-color="#007AFF"/>
</radialGradient>
<radialGradient id="paint18_radial" cx="0" cy="0" r="1" gradientUnits="userSpaceOnUse" gradientTransform="translate(247.531 15.9417) rotate(166.153) scale(173.627 526.022)">
<stop stop-color="#0F2340"/>
<stop offset="0.734375" stop-color="#007AFF"/>
</radialGradient>
<radialGradient id="paint19_radial" cx="0" cy="0" r="1" gradientUnits="userSpaceOnUse" gradientTransform="translate(247.531 15.9417) rotate(166.153) scale(173.627 526.022)">
<stop stop-color="#0F2340"/>
<stop offset="0.734375" stop-color="#007AFF"/>
</radialGradient>
<radialGradient id="paint20_radial" cx="0" cy="0" r="1" gradientUnits="userSpaceOnUse" gradientTransform="translate(247.531 15.9417) rotate(166.153) scale(173.627 526.022)">
<stop stop-color="#0F2340"/>
<stop offset="0.734375" stop-color="#007AFF"/>
</radialGradient>
<radialGradient id="paint21_radial" cx="0" cy="0" r="1" gradientUnits="userSpaceOnUse" gradientTransform="translate(247.531 15.9417) rotate(166.153) scale(173.627 526.022)">
<stop stop-color="#0F2340"/>
<stop offset="0.734375" stop-color="#007AFF"/>
</radialGradient>
<radialGradient id="paint22_radial" cx="0" cy="0" r="1" gradientUnits="userSpaceOnUse" gradientTransform="translate(247.531 15.9417) rotate(166.153) scale(173.627 526.022)">
<stop stop-color="#0F2340"/>
<stop offset="0.734375" stop-color="#007AFF"/>
</radialGradient>
</defs>
</svg>
