<svg width="262" height="264" viewBox="0 0 262 264" fill="none" xmlns="http://www.w3.org/2000/svg">
<path d="M131 131.582C131 86.847 131 131.582 131 50.582C175.735 50.582 212 86.847 212 131.582C212 176.317 175.735 212.582 131 212.582C131 131.582 131 176.317 131 131.582Z" fill="#007AFF"/>
<path d="M131 131.582C131 176.317 131 131.582 131 212.582C86.2649 212.582 50 176.317 50 131.582C50 86.847 86.2649 50.582 131 50.582C131 131.582 131 86.847 131 131.582Z" fill="#0F2340"/>
<path d="M130.565 50.3272C116.316 36.7809 137.112 56.5517 104.765 25.7994C118.311 11.5508 140.844 10.9814 155.092 24.5277C130.565 50.3271 144.111 36.0785 130.565 50.3272C104.765 25.7994 144.813 63.8735 130.565 50.3272Z" fill="white"/>
<path d="M130.549 213.18C144.451 227.082 124.161 206.792 155.721 238.352C141.819 252.254 119.28 252.254 105.378 238.352C130.549 213.18 116.647 227.082 130.549 213.18C155.721 238.352 116.647 199.278 130.549 213.18Z" fill="white"/>
<path d="M50.0256 131.753C36.1765 145.603 56.3892 125.39 24.9496 156.829C11.1701 143.05 11.2264 120.652 25.0755 106.803C50.0255 131.754 36.246 117.974 50.0256 131.753C24.9496 156.829 63.8747 117.904 50.0256 131.753Z" fill="white"/>
<path d="M211.974 131.753C225.823 117.904 205.611 138.117 237.05 106.677C250.83 120.457 250.774 142.854 236.925 156.703C211.974 131.753 225.754 145.533 211.974 131.753C237.05 106.677 198.125 145.602 211.974 131.753Z" fill="white"/>
<path d="M73.5242 73.582C53.3525 73.582 82.7931 73.582 37 73.582C37 54.2521 53.3525 38.582 73.5242 38.582C73.5241 73.582 73.5242 54.2521 73.5242 73.582C37 73.582 93.696 73.582 73.5242 73.582Z" fill="#8CBCF9"/>
<path d="M73.5242 190.582C53.3525 190.582 82.7931 190.582 37 190.582C37 209.36 53.3525 224.582 73.5242 224.582C73.5241 190.582 73.5242 209.36 73.5242 190.582C37 190.582 93.696 190.582 73.5242 190.582Z" fill="#8CBCF9"/>
<path d="M188 74.2154C188 54.5357 188 83.2583 188 38.582C207.33 38.582 223 54.5357 223 74.2154C188 74.2153 207.33 74.2154 188 74.2154C188 38.582 188 93.8952 188 74.2154Z" fill="#8CBCF9"/>
<path d="M188 189.839C188 209.027 188 181.023 188 224.582C207.33 224.582 223 209.027 223 189.839C188 189.84 207.33 189.839 188 189.839C188 224.582 188 170.652 188 189.839Z" fill="#8CBCF9"/>
</svg>
